# xmcd
#
# Track frame offsets:
#	150
#	14405
#	33087
#	52472
#	73260
#	89677
#	111804
#	124095
#	145475
#	165377
#	181430
#	200415
#
# Disc length: 2753 seconds
#
# Revision: 1
# Processed by: cddbd v1.4PL0 Copyright (c) Steve Scherf et al.
# Submitted via: audiograbber 1.81.03
#
DISCID=b30abf0c
DTITLE=Pepe Ahlqvist and Tumbleweed - All Night Boogie
DYEAR=1997
DGENRE=Blues
TTITLE0=All Night Long
TTITLE1=Forty-Four
TTITLE2=I Wanna Po
TTITLE3=Dirty Shame
TTITLE4=My Feet Don't Wanna Walk No More
TTITLE5=Stick With The Blues
TTITLE6=Rakevillage Boogie Comes And Goes
TTITLE7=My Baby
TTITLE8=Signals Of Love
TTITLE9=Guitar Cha-Cha
TTITLE10=Burn Out
TTITLE11=Bye Bye Bird
EXTD=
EXTT0=
EXTT1=
EXTT2=
EXTT3=
EXTT4=
EXTT5=
EXTT6=
EXTT7=
EXTT8=
EXTT9=
EXTT10=
EXTT11=
PLAYORDER=
